<svg data-v-423bf9ae="" xmlns="http://www.w3.org/2000/svg" viewBox="0 0 58.02243574338093 60" class="icon"><!----><!----><!----><!----><g data-v-423bf9ae="" id="dae7b9ab-6a63-420a-97a9-51703a58795f" transform="matrix(0.9999992370611289,0,0,0.9999992370611289,0.00003626136278001013,0.00004723930067029869)" stroke="none" fill="white"><circle cx="45" cy="5" r="1.5"></circle><circle cx="32" cy="24" r="1.5"></circle><path d="M56 33V19c0-4.41-3.59-8-8-8s-8 3.59-8 8v14c0 4.41 3.59 8 8 8s8-3.59 8-8zm-8-20c3.31 0 6 2.69 6 6v6H42v-6c0-3.31 2.69-6 6-6zm0 26c-3.31 0-6-2.69-6-6v-6h12v6c0 3.31-2.69 6-6 6zM26.89 34.12c-2.14 0-4.15.83-5.66 2.33l-9.9 9.9A7.981 7.981 0 0 0 9 52.01c0 2.14.83 4.15 2.33 5.66 1.51 1.51 3.51 2.33 5.66 2.33 2.14 0 4.15-.83 5.66-2.33l9.9-9.9c3.12-3.12 3.12-8.19 0-11.31a7.949 7.949 0 0 0-5.66-2.34zm-5.66 22.13A5.926 5.926 0 0 1 16.99 58c-1.61 0-3.11-.62-4.24-1.75S11 53.62 11 52.01c0-1.61.62-3.11 1.75-4.24l4.24-4.24 8.49 8.49-4.25 4.23zm9.9-9.9l-4.24 4.24-8.49-8.49 4.24-4.24a5.943 5.943 0 0 1 4.24-1.75c1.61 0 3.11.62 4.24 1.75 2.35 2.35 2.35 6.15.01 8.49zM12.23 23.55c1.51 1.51 3.51 2.33 5.66 2.33 2.14 0 4.15-.83 5.66-2.33 3.12-3.12 3.12-8.19 0-11.31l-9.9-9.9A7.949 7.949 0 0 0 7.99 0C5.85 0 3.84.83 2.33 2.33A7.981 7.981 0 0 0 0 7.99c0 2.14.83 4.15 2.33 5.66l9.9 9.9zm9.9-1.42a5.943 5.943 0 0 1-4.24 1.75c-1.61 0-3.11-.62-4.24-1.75l-4.24-4.24L17.9 9.4l4.24 4.24c2.33 2.35 2.33 6.15-.01 8.49zM3.75 3.75A5.943 5.943 0 0 1 7.99 2c1.61 0 3.11.62 4.24 1.75l4.24 4.24-8.49 8.49-4.24-4.24A5.998 5.998 0 0 1 2 7.99c0-1.61.62-3.11 1.75-4.24zM10.17 36c.55 0 1-.45 1-1s-.45-1-1-1h-3v-3c0-.55-.45-1-1-1s-1 .45-1 1v3h-3c-.55 0-1 .45-1 1s.45 1 1 1h3v3c0 .55.45 1 1 1s1-.45 1-1v-3h3zM55.59 53.83l2.12-2.12a.996.996 0 1 0-1.41-1.41l-2.12 2.12-2.12-2.12a.996.996 0 1 0-1.41 1.41l2.12 2.12-2.12 2.12a.996.996 0 0 0 .71 1.7c.26 0 .51-.1.71-.29l2.12-2.12 2.12 2.12c.2.2.45.29.71.29s.51-.1.71-.29a.996.996 0 0 0 0-1.41l-2.14-2.12z"></path></g><!----></svg>